<?xml version="1.0" encoding="UTF-8"?><svg id="a" xmlns="http://www.w3.org/2000/svg" viewBox="0 0 48 48"><path d="m0,23.897c.035-.531.04-1.163.127-1.784.173-1.241.502-2.444,1.004-3.596.455-1.044,1.024-2.023,1.729-2.913.469-.592.983-1.158,1.535-1.672,1.089-1.015,2.327-1.82,3.691-2.425,1.003-.445,2.05-.754,3.126-.955.456-.085.925-.107,1.389-.142.371-.028.743-.044,1.114-.046.761-.004,1.519.056,2.262.23.697.163,1.398.322,2.077.543,1.296.423,2.488,1.064,3.56,1.907.555.436,1.107.885,1.607,1.383.796.793,1.465,1.693,2.031,2.665.555.953,1.004,1.955,1.288,3.021.167.628.288,1.27.415,1.908.162.815.172,1.644.131,2.468-.033.664-.104,1.332-.23,1.984-.138.716-.322,1.427-.549,2.119-.431,1.316-1.105,2.511-1.931,3.623-.541.728-1.16,1.383-1.825,1.99-.693.633-1.454,1.183-2.278,1.641-.893.496-1.815.917-2.799,1.207-.707.209-1.419.376-2.152.452-.486.051-.972.125-1.459.133-1.719.025-3.394-.242-5.008-.842-1.205-.449-2.34-1.035-3.351-1.836-.536-.425-1.076-.852-1.557-1.335-.895-.896-1.643-1.908-2.257-3.021-.636-1.152-1.085-2.374-1.376-3.651-.125-.551-.177-1.12-.237-1.684-.045-.422-.05-.849-.078-1.372Zm28.346.104c.042.711.069,1.424.132,2.134.053.603.12,1.207.232,1.801.148.792.309,1.585.53,2.36.305,1.072.717,2.105,1.274,3.078.667,1.166,1.474,2.204,2.642,2.907.861.518,1.809.68,2.786.474,1.279-.27,2.211-1.091,2.998-2.078.558-.701.993-1.483,1.365-2.302.419-.924.755-1.876.981-2.86.196-.853.335-1.721.462-2.587.094-.638.174-1.285.18-1.929.009-1.01-.03-2.022-.089-3.031-.036-.618-.115-1.238-.229-1.847-.16-.85-.328-1.703-.569-2.532-.403-1.387-.986-2.702-1.818-3.894-.441-.632-.955-1.207-1.577-1.658-.834-.606-1.756-.967-2.828-.856-.528.055-1.024.194-1.482.432-.817.425-1.48,1.049-2.029,1.781-.804,1.072-1.385,2.266-1.822,3.53-.422,1.221-.733,2.47-.872,3.757-.087.799-.162,1.599-.227,2.4-.025.304-.004.612-.004.918-.012,0-.024.001-.036.002Zm19.383-5.282c-.059-.559-.093-1.123-.192-1.675-.14-.779-.312-1.554-.503-2.322-.161-.645-.382-1.275-.778-1.82-.334-.46-.813-.59-1.201-.086-.269.351-.467.771-.629,1.186-.499,1.281-.684,2.637-.874,3.988-.108.773-.168,1.553-.233,2.331-.046.558-.093,1.118-.09,1.677.011,1.738-.071,3.478.084,5.214.046.512.062,1.026.095,1.539.011.18.024.361.048.54.057.429.117.858.182,1.286.066.434.123.871.212,1.3.113.542.241,1.082.388,1.616.171.622.396,1.227.809,1.735.326.4.809.356,1.126-.018.43-.508.63-1.12.812-1.734.381-1.285.582-2.609.74-3.938.076-.642.138-1.285.183-1.93.047-.673.091-1.347.09-2.021,0-1.615-.027-3.231-.041-4.63-.091-.891-.158-1.564-.229-2.237Z" fill="#020202"/></svg>