<svg width="1388" height="208" viewBox="0 0 1388 208" fill="none" xmlns="http://www.w3.org/2000/svg">
<path d="M283.979 77.6264C295.224 84.4771 295.224 101.604 283.979 108.454L195.431 162.403C184.186 169.254 170.131 160.691 170.131 146.989L170.131 39.0914C170.131 25.3901 184.186 16.8268 195.431 23.6775L283.979 77.6264Z" fill="#D6F050"/>
<path d="M0 86.4405C0 76.8723 7.14096 69.1157 15.9498 69.1157V69.1157C24.7586 69.1157 31.8996 76.8723 31.8996 86.4405V99.6403C31.8996 109.209 24.7586 116.965 15.9498 116.965V116.965C7.14096 116.965 0 109.209 0 99.6403V86.4405Z" fill="#D6F050"/>
<path d="M111.648 17.7623C111.648 7.95244 119.98 0 130.257 0C140.533 0 148.865 7.95243 148.865 17.7623V168.319C148.865 178.128 140.533 186.081 130.257 186.081C119.98 186.081 111.648 178.128 111.648 168.319V17.7623Z" fill="#D6F050"/>
<path d="M546.918 53.4065C546.309 47.3043 543.692 42.5638 539.069 39.1849C534.446 35.806 528.172 34.1166 520.247 34.1166C514.862 34.1166 510.315 34.8731 506.607 36.386C502.898 37.8485 500.053 39.8909 498.072 42.5134C496.142 45.1358 495.176 48.1112 495.176 51.4397C495.075 54.2134 495.659 56.634 496.929 58.7017C498.25 60.7694 500.053 62.5597 502.339 64.0726C504.625 65.5351 507.267 66.8211 510.265 67.9306C513.262 68.9896 516.462 69.8974 519.866 70.6539L533.888 73.9823C540.695 75.4952 546.944 77.5125 552.634 80.034C558.323 82.5556 563.251 85.6571 567.417 89.3386C571.583 93.02 574.809 97.3571 577.095 102.35C579.432 107.342 580.626 113.066 580.676 119.522C580.626 129.003 578.187 137.223 573.361 144.182C568.585 151.091 561.676 156.462 552.634 160.295C543.642 164.077 532.795 165.969 520.095 165.969C507.496 165.969 496.523 164.052 487.175 160.219C477.878 156.387 470.613 150.713 465.381 143.199C460.199 135.634 457.481 126.279 457.227 115.134H489.156C489.512 120.328 491.011 124.665 493.652 128.145C496.345 131.575 499.926 134.172 504.397 135.937C508.918 137.651 514.024 138.509 519.714 138.509C525.302 138.509 530.154 137.702 534.269 136.088C538.434 134.474 541.66 132.23 543.946 129.356C546.232 126.481 547.376 123.178 547.376 119.446C547.376 115.966 546.334 113.041 544.251 110.671C542.219 108.301 539.222 106.283 535.259 104.619C531.347 102.955 526.547 101.442 520.857 100.08L503.863 95.8442C490.706 92.667 480.317 87.6996 472.696 80.9418C465.076 74.184 461.291 65.0812 461.342 53.6334C461.291 44.2532 463.806 36.0582 468.886 29.0483C474.017 22.0384 481.053 16.5666 489.994 12.633C498.936 8.69936 509.096 6.73254 520.476 6.73254C532.059 6.73254 542.168 8.69936 550.805 12.633C559.492 16.5666 566.249 22.0384 571.075 29.0483C575.901 36.0582 578.39 44.1776 578.543 53.4065H546.918Z" fill="#D6F050"/>
<path d="M655.146 166.044C643.309 166.044 633.072 163.548 624.436 158.555C615.851 153.512 609.221 146.502 604.547 137.525C599.873 128.498 597.536 118.034 597.536 106.132C597.536 94.1295 599.873 83.6399 604.547 74.6631C609.221 65.636 615.851 58.6261 624.436 53.6334C633.072 48.5903 643.309 46.0688 655.146 46.0688C666.983 46.0688 677.194 48.5903 685.78 53.6334C694.416 58.6261 701.071 65.636 705.745 74.6631C710.419 83.6399 712.756 94.1295 712.756 106.132C712.756 118.034 710.419 128.498 705.745 137.525C701.071 146.502 694.416 153.512 685.78 158.555C677.194 163.548 666.983 166.044 655.146 166.044ZM655.298 141.081C660.683 141.081 665.179 139.568 668.786 136.542C672.393 133.466 675.111 129.28 676.94 123.985C678.82 118.689 679.76 112.663 679.76 105.905C679.76 99.1474 678.82 93.1209 676.94 87.8256C675.111 82.5304 672.393 78.3446 668.786 75.2683C665.179 72.192 660.683 70.6539 655.298 70.6539C649.863 70.6539 645.29 72.192 641.582 75.2683C637.924 78.3446 635.155 82.5304 633.276 87.8256C631.447 93.1209 630.532 99.1474 630.532 105.905C630.532 112.663 631.447 118.689 633.276 123.985C635.155 129.28 637.924 133.466 641.582 136.542C645.29 139.568 649.863 141.081 655.298 141.081Z" fill="#D6F050"/>
<path d="M808.924 114.302V47.5817H841.387V163.775H810.22V142.669H809C806.359 149.478 801.964 154.949 795.817 159.085C789.721 163.22 782.278 165.288 773.49 165.288C765.666 165.288 758.782 163.523 752.839 159.992C746.895 156.462 742.246 151.444 738.893 144.939C735.591 138.433 733.915 130.642 733.864 121.564V47.5817H766.327V115.815C766.377 122.673 768.232 128.095 771.889 132.079C775.547 136.063 780.45 138.055 786.597 138.055C790.508 138.055 794.166 137.172 797.57 135.407C800.974 133.592 803.717 130.919 805.8 127.389C807.934 123.859 808.975 119.496 808.924 114.302Z" fill="#D6F050"/>
<path d="M899.816 96.6006V163.775H867.353V47.5817H898.292V68.0819H899.663C902.254 61.3241 906.598 55.9784 912.694 52.0448C918.79 48.0608 926.182 46.0688 934.869 46.0688C942.998 46.0688 950.084 47.8338 956.13 51.364C962.175 54.8942 966.875 59.9373 970.228 66.4933C973.58 72.9989 975.257 80.7653 975.257 89.7924V163.775H942.794V95.5416C942.845 88.4308 941.016 82.8834 937.308 78.8993C933.599 74.8649 928.494 72.8476 921.991 72.8476C917.622 72.8476 913.761 73.7806 910.408 75.6465C907.106 77.5125 904.515 80.2358 902.635 83.8164C900.806 87.3465 899.866 91.608 899.816 96.6006Z" fill="#D6F050"/>
<path d="M1043.97 165.666C1035.08 165.666 1027.03 163.397 1019.82 158.858C1012.65 154.269 1006.96 147.536 1002.75 138.66C998.581 129.734 996.499 118.79 996.499 105.83C996.499 92.5157 998.658 81.4461 1002.98 72.6207C1007.29 63.7448 1013.03 57.1131 1020.2 52.7256C1027.41 48.2877 1035.31 46.0688 1043.9 46.0688C1050.45 46.0688 1055.91 47.1782 1060.28 49.3972C1064.7 51.5657 1068.26 54.289 1070.95 57.567C1073.69 60.7946 1075.78 63.9718 1077.2 67.0985H1078.19V8.85065H1110.57V163.775H1078.57V145.166H1077.2C1075.67 148.393 1073.51 151.596 1070.72 154.773C1067.98 157.9 1064.4 160.497 1059.98 162.564C1055.61 164.632 1050.27 165.666 1043.97 165.666ZM1054.26 140.022C1059.49 140.022 1063.91 138.61 1067.52 135.786C1071.18 132.911 1073.97 128.902 1075.9 123.758C1077.88 118.614 1078.87 112.587 1078.87 105.678C1078.87 98.7692 1077.91 92.7679 1075.98 87.6743C1074.05 82.5808 1071.25 78.6472 1067.6 75.8735C1063.94 73.0998 1059.49 71.7129 1054.26 71.7129C1048.93 71.7129 1044.43 73.1502 1040.77 76.0248C1037.11 78.8993 1034.35 82.8834 1032.47 87.9769C1030.59 93.0705 1029.65 98.9709 1029.65 105.678C1029.65 112.436 1030.59 118.412 1032.47 123.606C1034.4 128.75 1037.17 132.785 1040.77 135.71C1044.43 138.584 1048.93 140.022 1054.26 140.022Z" fill="#D6F050"/>
<path d="M1137.27 163.775V47.5817H1169.73V163.775H1137.27ZM1153.57 32.6037C1148.75 32.6037 1144.61 31.0151 1141.15 27.8379C1137.75 24.6103 1136.05 20.7524 1136.05 16.264C1136.05 11.8261 1137.75 8.01854 1141.15 4.84139C1144.61 1.6138 1148.75 0 1153.57 0C1158.4 0 1162.51 1.6138 1165.92 4.84139C1169.37 8.01854 1171.1 11.8261 1171.1 16.264C1171.1 20.7524 1169.37 24.6103 1165.92 27.8379C1162.51 31.0151 1158.4 32.6037 1153.57 32.6037Z" fill="#D6F050"/>
<path d="M1258.68 47.5817V71.7886H1186.44V47.5817H1258.68ZM1202.97 163.775V39.1849C1202.97 30.7629 1204.62 23.7782 1207.92 18.2308C1211.28 12.6834 1215.85 8.52284 1221.64 5.74914C1227.43 2.97543 1234.01 1.58858 1241.38 1.58858C1246.36 1.58858 1250.9 1.96681 1255.02 2.72329C1259.18 3.47975 1262.28 4.16056 1264.32 4.76574L1258.52 28.9726C1257.25 28.5692 1255.68 28.1909 1253.8 27.8379C1251.97 27.4849 1250.09 27.3084 1248.16 27.3084C1243.38 27.3084 1240.06 28.4179 1238.18 30.6369C1236.3 32.8054 1235.36 35.8565 1235.36 39.7901V163.775H1202.97Z" fill="#D6F050"/>
<path d="M1298.55 207.347C1294.43 207.347 1290.57 207.019 1286.97 206.364C1283.41 205.759 1280.46 204.977 1278.13 204.019L1285.44 179.963C1289.25 181.123 1292.68 181.753 1295.73 181.854C1298.83 181.955 1301.5 181.249 1303.73 179.736C1306.02 178.223 1307.87 175.651 1309.29 172.02L1311.2 167.103L1269.21 47.5817H1303.35L1327.58 132.911H1328.8L1353.26 47.5817H1387.63L1342.14 176.332C1339.95 182.586 1336.98 188.032 1333.22 192.672C1329.51 197.362 1324.81 200.968 1319.12 203.489C1313.43 206.061 1306.58 207.347 1298.55 207.347Z" fill="#D6F050"/>
<path d="M58.4824 44.4157C58.4824 34.567 65.6234 26.583 74.4322 26.583C83.241 26.583 90.382 34.567 90.382 44.4158V131.032C90.382 140.881 83.241 148.865 74.4322 148.865C65.6234 148.865 58.4824 140.881 58.4824 131.032V44.4157Z" fill="#D6F050"/>
</svg>
