<?xml version="1.0" encoding="utf-8"?>
<!-- Generator: Adobe Illustrator 27.7.0, SVG Export Plug-In . SVG Version: 6.00 Build 0)  -->
<svg version="1.1" xmlns="http://www.w3.org/2000/svg" xmlns:xlink="http://www.w3.org/1999/xlink" x="0px" y="0px"
	 viewBox="0 0 25 25" style="enable-background:new 0 0 25 25;" xml:space="preserve">
<style type="text/css">
	.st0{display:none;}
	.st1{display:inline;fill:none;stroke:#000000;stroke-width:2.3;stroke-linecap:round;stroke-linejoin:round;}
</style>
<g id="Layer_1" class="st0">
	<polygon class="st1" points="1.6,16.2 12.6,23.5 23.6,16.2 23.6,8.8 12.6,1.5 1.6,8.8 	"/>
	<polyline class="st1" points="23.6,16.2 12.6,8.8 1.6,16.2 	"/>
	<polyline class="st1" points="1.6,8.8 12.6,16.1 23.6,8.8 	"/>
	<line class="st1" x1="12.6" y1="1.5" x2="12.6" y2="8.8"/>
	<line class="st1" x1="12.6" y1="16.2" x2="12.6" y2="23.5"/>
	<polygon class="st1" points="1.6,16.2 12.6,23.5 23.6,16.2 23.6,8.8 12.6,1.5 1.6,8.8 	"/>
	<polyline class="st1" points="23.6,16.2 12.6,8.8 1.6,16.2 	"/>
	<polyline class="st1" points="1.6,8.8 12.6,16.1 23.6,8.8 	"/>
	<line class="st1" x1="12.6" y1="1.5" x2="12.6" y2="8.8"/>
</g>
<g id="Layer_2">
	<g>
		<path d="M12.5,25c-0.2,0-0.5-0.1-0.7-0.2L0.5,17.3c-0.3-0.2-0.5-0.6-0.5-1V8.7c0-0.4,0.2-0.8,0.5-1l11.3-7.5
			c0.4-0.3,0.9-0.3,1.3,0l11.3,7.5c0.3,0.2,0.5,0.6,0.5,1v7.6c0,0.4-0.2,0.8-0.5,1l-11.3,7.5C13,24.9,12.7,25,12.5,25z M2.4,15.7
			l10.1,6.7l10.1-6.7V9.3L12.5,2.6L2.4,9.3V15.7z"/>
		<path d="M23.8,17.5c-0.2,0-0.5-0.1-0.7-0.2l-10.7-7.2L1.8,17.3c-0.5,0.4-1.3,0.2-1.6-0.3c-0.4-0.5-0.2-1.3,0.3-1.6l11.3-7.6
			c0.4-0.3,0.9-0.3,1.3,0l11.3,7.6c0.5,0.4,0.7,1.1,0.3,1.6C24.6,17.3,24.2,17.5,23.8,17.5z"/>
		<path d="M12.5,17.4c-0.2,0-0.5-0.1-0.7-0.2L0.5,9.7C0,9.3-0.2,8.6,0.2,8c0.4-0.5,1.1-0.7,1.6-0.3l10.7,7.1l10.7-7.1
			c0.5-0.4,1.3-0.2,1.6,0.3c0.4,0.5,0.2,1.3-0.3,1.6l-11.3,7.5C13,17.3,12.7,17.4,12.5,17.4z"/>
		<path d="M12.5,9.9c-0.7,0-1.2-0.5-1.2-1.2V1.2c0-0.7,0.5-1.2,1.2-1.2s1.2,0.5,1.2,1.2v7.5C13.7,9.3,13.2,9.9,12.5,9.9z"/>
		<path d="M12.5,25c-0.7,0-1.2-0.5-1.2-1.2v-7.6c0-0.7,0.5-1.2,1.2-1.2s1.2,0.5,1.2,1.2v7.6C13.7,24.5,13.2,25,12.5,25z"/>
	</g>
</g>
</svg>
