<?xml version="1.0" encoding="utf-8"?>
<!-- Generator: Adobe Illustrator 27.7.0, SVG Export Plug-In . SVG Version: 6.00 Build 0)  -->
<svg version="1.1" xmlns="http://www.w3.org/2000/svg" xmlns:xlink="http://www.w3.org/1999/xlink" x="0px" y="0px"
	 viewBox="0 0 25 25" style="enable-background:new 0 0 25 25;" xml:space="preserve">
<style type="text/css">
	.st0{display:none;}
	.st1{display:inline;stroke:#000000;stroke-width:7;stroke-linecap:round;stroke-linejoin:round;stroke-miterlimit:10;}
</style>
<g id="Layer_1" class="st0">
	<polygon class="st1" points="56.5,-50 21,-50 21,-44 52.3,-44 -0.9,9.1 3.4,13.4 56.5,-39.8 56.5,-8.5 62.5,-8.5 62.5,-44 
		62.5,-50 	"/>
	<path class="st1" d="M56.5,29.5C56.5,37.5,50,44,42,44h-59c-8,0-14.5-6.5-14.5-14.5v-59c0-8,6.5-14.5,14.5-14.5H4.5v-6H-17
		c-11.3,0-20.5,9.2-20.5,20.5v59C-37.5,40.8-28.3,50-17,50h59c11.3,0,20.5-9.2,20.5-20.5V8h-6V29.5z"/>
</g>
<g id="Layer_2">
	<g>
		<path d="M24.2,0h-9.7c-0.5,0-0.8,0.4-0.8,0.8v1.4C13.7,2.7,14,3,14.5,3h5.3l-11,11c-0.3,0.3-0.3,0.8,0,1.2l1,1
			c0.2,0.2,0.4,0.2,0.6,0.2c0.2,0,0.4-0.1,0.6-0.2l11-11v5.3c0,0.5,0.4,0.8,0.8,0.8h1.4c0.5,0,0.8-0.4,0.8-0.8V0.8
			C25,0.4,24.6,0,24.2,0z"/>
		<path d="M24.2,13.6h-1.4c-0.5,0-0.8,0.4-0.8,0.8v5c0,1.4-1.2,2.6-2.6,2.6H5.6C4.2,22,3,20.8,3,19.4V5.6C3,4.2,4.2,3,5.6,3h5
			c0.5,0,0.8-0.4,0.8-0.8V0.8c0-0.5-0.4-0.8-0.8-0.8h-5C2.5,0,0,2.5,0,5.6v13.8C0,22.5,2.5,25,5.6,25h13.8c3.1,0,5.6-2.5,5.6-5.6v-5
			C25,13.9,24.6,13.6,24.2,13.6z"/>
	</g>
</g>
</svg>
