<?xml version="1.0" encoding="utf-8"?>
<!-- Generator: Adobe Illustrator 27.6.1, SVG Export Plug-In . SVG Version: 6.00 Build 0)  -->
<svg version="1.1" id="Layer_1" xmlns="http://www.w3.org/2000/svg" xmlns:xlink="http://www.w3.org/1999/xlink" x="0px" y="0px"
	 viewBox="0 0 30 30" style="enable-background:new 0 0 30 30;" xml:space="preserve">
<style type="text/css">
	.st0{fill:#E1AFFE;}
</style>
<g id="logo">
	<path id="Rectangle_132" class="st0" d="M0,5c0-2.8,2.1-5,4.7-5l0,0c2.6,0,4.7,2.2,4.7,5v20c0,2.8-2.1,5-4.7,5l0,0
		C2.1,30,0,27.8,0,25V5z"/>
	<path id="Rectangle_133" class="st0" d="M12.2,4.8c0-2.6,2-4.8,4.4-4.8l0,0c1.7,0,3.2,1,3.9,2.6l8.8,18.6c1.9,4-0.8,8.8-5,8.8h-6.6
		c-3.1,0-5.6-2.7-5.6-6.1V4.8z"/>
</g>
</svg>
